<?xml version="1.0" encoding="UTF-8" standalone="no"?>
<svg
   aria-hidden="true"
   focusable="false"
   data-prefix="far"
   data-icon="moon"
   class="svg-inline--fa fa-moon"
   role="img"
   viewBox="0 0 512 512"
   version="1.1"
   id="svg1273"
   sodipodi:docname="moon-regular.svg"
   inkscape:version="1.1.1 (3bf5ae0d25, 2021-09-20)"
   xmlns:inkscape="http://www.inkscape.org/namespaces/inkscape"
   xmlns:sodipodi="http://sodipodi.sourceforge.net/DTD/sodipodi-0.dtd"
   xmlns="http://www.w3.org/2000/svg"
   xmlns:svg="http://www.w3.org/2000/svg">
  <defs
     id="defs1277" />
  <sodipodi:namedview
     id="namedview1275"
     pagecolor="#ffffff"
     bordercolor="#666666"
     borderopacity="1.0"
     inkscape:pageshadow="2"
     inkscape:pageopacity="0.0"
     inkscape:pagecheckerboard="0"
     showgrid="false"
     inkscape:zoom="1.5625"
     inkscape:cx="132.48"
     inkscape:cy="256"
     inkscape:window-width="2880"
     inkscape:window-height="1526"
     inkscape:window-x="2869"
     inkscape:window-y="4"
     inkscape:window-maximized="1"
     inkscape:current-layer="svg1273" />
  <path
     fill="currentColor"
     d="M421.6 379.9c-.6641 0-1.35 .0625-2.049 .1953c-11.24 2.143-22.37 3.17-33.32 3.17c-94.81 0-174.1-77.14-174.1-175.5c0-63.19 33.79-121.3 88.73-152.6c8.467-4.812 6.339-17.66-3.279-19.44c-11.2-2.078-29.53-3.746-40.9-3.746C132.3 31.1 32 132.2 32 256c0 123.6 100.1 224 223.8 224c69.04 0 132.1-31.45 173.8-82.93C435.3 389.1 429.1 379.9 421.6 379.9zM255.8 432C158.9 432 80 353 80 256c0-76.32 48.77-141.4 116.7-165.8C175.2 125 163.2 165.6 163.2 207.8c0 99.44 65.13 183.9 154.9 212.8C298.5 428.1 277.4 432 255.8 432z"
     id="path1271"
     style="fill:#111517;fill-opacity:1" />
</svg>
